{
  "accessors": [
    {
      "bufferView": 2,
      "componentType": 5126,
      "count": 321,
      "max": [
        28.74185562133789,
        20.938199996948242,
        28.745758056640625
      ],
      "min": [
        -20.297590255737305,
        0.34802818298339844,
        -20.297592163085938
      ],
      "type": "VEC3"
    },
    {
      "bufferView": 2,
      "byteOffset": 3852,
      "componentType": 5126,
      "count": 321,
      "max": [
        0.9999539852142334,
        1.0,
        0.9877402782440186
      ],
      "min": [
        -1.0,
        -0.009599559009075165,
        -0.9877402782440186
      ],
      "type": "VEC3"
    },
    {
      "bufferView": 3,
      "componentType": 5126,
      "count": 321,
      "max": [
        1.0,
        1.0,
        1.0,
        0.0
      ],
      "min": [
        0.11372549086809158,
        0.10980392247438431,
        0.20392157137393951,
        0.0
      ],
      "type": "VEC4"
    },
    {
      "bufferView": 1,
      "componentType": 5126,
      "count": 321,
      "max": [
        0.9965184926986694,
        1.0416594743728638
      ],
      "min": [
        0.009901165962219238,
        0.003721892833709717
      ],
      "type": "VEC2"
    },
    {
      "bufferView": 1,
      "byteOffset": 2568,
      "componentType": 5126,
      "count": 321,
      "max": [
        0.9965184926986694,
        1.0416594743728638
      ],
      "min": [
        0.009901165962219238,
        0.003721892833709717
      ],
      "type": "VEC2"
    },
    {
      "bufferView": 1,
      "byteOffset": 5136,
      "componentType": 5126,
      "count": 321,
      "max": [
        0.001705944538116455,
        1.0416594743728638
      ],
      "min": [
        -0.9849113821983337,
        0.003721892833709717
      ],
      "type": "VEC2"
    },
    {
      "bufferView": 1,
      "byteOffset": 7704,
      "componentType": 5126,
      "count": 321,
      "max": [
        -0.0376664400100708,
        1.0416594743728638
      ],
      "min": [
        -1.024283766746521,
        0.003721892833709717
      ],
      "type": "VEC2"
    },
    {
      "bufferView": 1,
      "byteOffset": 10272,
      "componentType": 5126,
      "count": 321,
      "max": [
        -0.03241682052612305,
        1.0416594743728638
      ],
      "min": [
        -1.0190341472625732,
        0.003721892833709717
      ],
      "type": "VEC2"
    },
    {
      "bufferView": 1,
      "byteOffset": 12840,
      "componentType": 5126,
      "count": 321,
      "max": [
        0.3145541548728943,
        1.0416594743728638
      ],
      "min": [
        -1.0032850503921509,
        0.003721892833709717
      ],
      "type": "VEC2"
    },
    {
      "bufferView": 1,
      "byteOffset": 15408,
      "componentType": 5126,
      "count": 321,
      "max": [
        -0.01141810417175293,
        1.0416594743728638
      ],
      "min": [
        -0.9980354309082031,
        0.003721892833709717
      ],
      "type": "VEC2"
    },
    {
      "bufferView": 0,
      "componentType": 5125,
      "count": 651,
      "type": "SCALAR"
    },
    {
      "bufferView": 2,
      "byteOffset": 7704,
      "componentType": 5126,
      "count": 538,
      "max": [
        23.657032012939453,
        54.073646545410156,
        23.66093635559082
      ],
      "min": [
        -16.76961898803711,
        12.506275177001953,
        -16.300716400146484
      ],
      "type": "VEC3"
    },
    {
      "bufferView": 2,
      "byteOffset": 14160,
      "componentType": 5126,
      "count": 538,
      "max": [
        1.0,
        1.0,
        1.0
      ],
      "min": [
        -1.0,
        -1.0,
        -1.0
      ],
      "type": "VEC3"
    },
    {
      "bufferView": 3,
      "byteOffset": 5136,
      "componentType": 5126,
      "count": 538,
      "max": [
        1.0,
        1.0,
        1.0,
        0.0
      ],
      "min": [
        0.11372549086809158,
        0.10980392247438431,
        0.20392157137393951,
        0.0
      ],
      "type": "VEC4"
    },
    {
      "bufferView": 1,
      "byteOffset": 17976,
      "componentType": 5126,
      "count": 538,
      "max": [
        0.9863402247428894,
        0.9829980731010437
      ],
      "min": [
        0.029988493770360947,
        0.004057526588439941
      ],
      "type": "VEC2"
    },
    {
      "bufferView": 1,
      "byteOffset": 22280,
      "componentType": 5126,
      "count": 538,
      "max": [
        -0.024221360683441162,
        0.9829980731010437
      ],
      "min": [
        -0.9805731177330017,
        0.004057526588439941
      ],
      "type": "VEC2"
    },
    {
      "bufferView": 1,
      "byteOffset": 26584,
      "componentType": 5126,
      "count": 538,
      "max": [
        0.9678833484649658,
        0.9829980731010437
      ],
      "min": [
        -0.940374493598938,
        0.004057526588439941
      ],
      "type": "VEC2"
    },
    {
      "bufferView": 1,
      "byteOffset": 30888,
      "componentType": 5126,
      "count": 538,
      "max": [
        -0.04784470796585083,
        0.9829980731010437
      ],
      "min": [
        -1.0041964054107666,
        0.004057526588439941
      ],
      "type": "VEC2"
    },
    {
      "bufferView": 1,
      "byteOffset": 35192,
      "componentType": 5126,
      "count": 538,
      "max": [
        0.9863402247428894,
        0.9829980731010437
      ],
      "min": [
        0.029988493770360947,
        0.004057526588439941
      ],
      "type": "VEC2"
    },
    {
      "bufferView": 1,
      "byteOffset": 39496,
      "componentType": 5126,
      "count": 538,
      "max": [
        -0.026845991611480713,
        0.9829980731010437
      ],
      "min": [
        -0.9831977486610413,
        0.004057526588439941
      ],
      "type": "VEC2"
    },
    {
      "bufferView": 1,
      "byteOffset": 43800,
      "componentType": 5126,
      "count": 538,
      "max": [
        -0.02159637212753296,
        0.9829980731010437
      ],
      "min": [
        -0.9779481291770935,
        0.004057526588439941
      ],
      "type": "VEC2"
    },
    {
      "bufferView": 0,
      "byteOffset": 2604,
      "componentType": 5125,
      "count": 1080,
      "type": "SCALAR"
    },
    {
      "bufferView": 2,
      "byteOffset": 20616,
      "componentType": 5126,
      "count": 664,
      "max": [
        28.74185562133789,
        26.350370407104492,
        10.08279037475586
      ],
      "min": [
        -10.455827713012695,
        0.34802818298339844,
        -20.297592163085938
      ],
      "type": "VEC3"
    },
    {
      "bufferView": 2,
      "byteOffset": 28584,
      "componentType": 5126,
      "count": 664,
      "max": [
        1.0,
        1.0,
        1.0
      ],
      "min": [
        -1.0,
        -1.0,
        -1.0
      ],
      "type": "VEC3"
    },
    {
      "bufferView": 3,
      "byteOffset": 13744,
      "componentType": 5126,
      "count": 664,
      "max": [
        1.0,
        1.0,
        1.0,
        0.0
      ],
      "min": [
        0.11372549086809158,
        0.10980392247438431,
        0.20392157137393951,
        0.0
      ],
      "type": "VEC4"
    },
    {
      "bufferView": 1,
      "byteOffset": 48104,
      "componentType": 5126,
      "count": 664,
      "max": [
        0.9706552624702454,
        0.9529647827148438
      ],
      "min": [
        0.021689049899578094,
        -0.020534873008728027
      ],
      "type": "VEC2"
    },
    {
      "bufferView": 1,
      "byteOffset": 53416,
      "componentType": 5126,
      "count": 664,
      "max": [
        -0.039906322956085205,
        0.9529647827148438
      ],
      "min": [
        -0.9888725280761719,
        -0.020534873008728027
      ],
      "type": "VEC2"
    },
    {
      "bufferView": 1,
      "byteOffset": 58728,
      "componentType": 5126,
      "count": 664,
      "max": [
        -0.024157285690307617,
        0.9529647827148438
      ],
      "min": [
        -0.9731234908103943,
        -0.020534873008728027
      ],
      "type": "VEC2"
    },
    {
      "bufferView": 1,
      "byteOffset": 64040,
      "componentType": 5126,
      "count": 664,
      "max": [
        -0.06352967023849487,
        0.9529647827148438
      ],
      "min": [
        -1.0124958753585815,
        -0.020534873008728027
      ],
      "type": "VEC2"
    },
    {
      "bufferView": 1,
      "byteOffset": 69352,
      "componentType": 5126,
      "count": 664,
      "max": [
        -0.05828005075454712,
        0.9529647827148438
      ],
      "min": [
        -1.0072462558746338,
        -0.020534873008728027
      ],
      "type": "VEC2"
    },
    {
      "bufferView": 1,
      "byteOffset": 74664,
      "componentType": 5126,
      "count": 664,
      "max": [
        -0.042530953884124756,
        0.9529647827148438
      ],
      "min": [
        -0.9914971590042114,
        -0.020534873008728027
      ],
      "type": "VEC2"
    },
    {
      "bufferView": 1,
      "byteOffset": 79976,
      "componentType": 5126,
      "count": 664,
      "max": [
        -0.037281334400177,
        0.9529647827148438
      ],
      "min": [
        -0.9862475395202637,
        -0.020534873008728027
      ],
      "type": "VEC2"
    },
    {
      "bufferView": 0,
      "byteOffset": 6924,
      "componentType": 5125,
      "count": 1362,
      "type": "SCALAR"
    },
    {
      "bufferView": 2,
      "byteOffset": 36552,
      "componentType": 5126,
      "count": 1224,
      "max": [
        9.588920593261719,
        20.938199996948242,
        4.188381195068359
      ],
      "min": [
        -3.256810188293457,
        12.50627613067627,
        -10.942705154418945
      ],
      "type": "VEC3"
    },
    {
      "bufferView": 2,
      "byteOffset": 51240,
      "componentType": 5126,
      "count": 1224,
      "max": [
        1.0,
        1.0,
        1.0
      ],
      "min": [
        -1.0,
        -1.0,
        -1.0
      ],
      "type": "VEC3"
    },
    {
      "bufferView": 3,
      "byteOffset": 24368,
      "componentType": 5126,
      "count": 1224,
      "max": [
        1.0,
        1.0,
        1.0,
        0.0
      ],
      "min": [
        0.11372549086809158,
        0.10980392247438431,
        0.20392157137393951,
        0.0
      ],
      "type": "VEC4"
    },
    {
      "bufferView": 1,
      "byteOffset": 85288,
      "componentType": 5126,
      "count": 1224,
      "max": [
        0.9848927855491638,
        0.9907734990119934
      ],
      "min": [
        0.014789512380957603,
        0.005602419376373291
      ],
      "type": "VEC2"
    },
    {
      "bufferView": 1,
      "byteOffset": 95080,
      "componentType": 5126,
      "count": 1224,
      "max": [
        0.9848927855491638,
        0.9907734990119934
      ],
      "min": [
        -0.9957720637321472,
        0.005602419376373291
      ],
      "type": "VEC2"
    },
    {
      "bufferView": 1,
      "byteOffset": 104872,
      "componentType": 5126,
      "count": 1224,
      "max": [
        -0.00991976261138916,
        0.9907734990119934
      ],
      "min": [
        -0.9800230264663696,
        0.005602419376373291
      ],
      "type": "VEC2"
    },
    {
      "bufferView": 1,
      "byteOffset": 114664,
      "componentType": 5126,
      "count": 1224,
      "max": [
        -0.049292147159576416,
        0.9907734990119934
      ],
      "min": [
        -1.0193954706192017,
        0.005602419376373291
      ],
      "type": "VEC2"
    },
    {
      "bufferView": 1,
      "byteOffset": 124456,
      "componentType": 5126,
      "count": 1224,
      "max": [
        -0.04404252767562866,
        0.9907734990119934
      ],
      "min": [
        -1.014145851135254,
        0.005602419376373291
      ],
      "type": "VEC2"
    },
    {
      "bufferView": 1,
      "byteOffset": 134248,
      "componentType": 5126,
      "count": 1224,
      "max": [
        0.9848927855491638,
        0.9907734990119934
      ],
      "min": [
        0.014789512380957603,
        0.005602419376373291
      ],
      "type": "VEC2"
    },
    {
      "bufferView": 1,
      "byteOffset": 144040,
      "componentType": 5126,
      "count": 1224,
      "max": [
        -0.023043811321258545,
        0.9907734990119934
      ],
      "min": [
        -0.993147075176239,
        0.005602419376373291
      ],
      "type": "VEC2"
    },
    {
      "bufferView": 0,
      "byteOffset": 12372,
      "componentType": 5125,
      "count": 2226,
      "type": "SCALAR"
    },
    {
      "bufferView": 2,
      "byteOffset": 65928,
      "componentType": 5126,
      "count": 1141,
      "max": [
        17.179298400878906,
        54.523170471191406,
        15.882198333740234
      ],
      "min": [
        -21.226009368896484,
        14.481698036193848,
        -22.63113784790039
      ],
      "type": "VEC3"
    },
    {
      "bufferView": 2,
      "byteOffset": 79620,
      "componentType": 5126,
      "count": 1141,
      "max": [
        1.0,
        0.9996132254600525,
        1.0
      ],
      "min": [
        -1.0,
        -0.984815776348114,
        -1.0
      ],
      "type": "VEC3"
    },
    {
      "bufferView": 3,
      "byteOffset": 43952,
      "componentType": 5126,
      "count": 1141,
      "max": [
        1.0,
        1.0,
        1.0,
        0.0
      ],
      "min": [
        0.11372549086809158,
        0.10980392247438431,
        0.20392157137393951,
        0.0
      ],
      "type": "VEC4"
    },
    {
      "bufferView": 1,
      "byteOffset": 153832,
      "componentType": 5126,
      "count": 1141,
      "max": [
        0.9870011806488037,
        0.9904446601867676
      ],
      "min": [
        0.008455443195998669,
        0.09003448486328125
      ],
      "type": "VEC2"
    },
    {
      "bufferView": 1,
      "byteOffset": 162960,
      "componentType": 5126,
      "count": 1141,
      "max": [
        -0.023560404777526855,
        0.9904446601867676
      ],
      "min": [
        -1.0021061897277832,
        0.09003448486328125
      ],
      "type": "VEC2"
    },
    {
      "bufferView": 1,
      "byteOffset": 172088,
      "componentType": 5126,
      "count": 1141,
      "max": [
        0.9870011806488037,
        0.9904446601867676
      ],
      "min": [
        0.008455443195998669,
        0.09003448486328125
      ],
      "type": "VEC2"
    },
    {
      "bufferView": 1,
      "byteOffset": 181216,
      "componentType": 5126,
      "count": 1141,
      "max": [
        -0.04718375205993652,
        0.9904446601867676
      ],
      "min": [
        -1.0257295370101929,
        0.09003448486328125
      ],
      "type": "VEC2"
    },
    {
      "bufferView": 1,
      "byteOffset": 190344,
      "componentType": 5126,
      "count": 1141,
      "max": [
        0.9761290550231934,
        0.9904446601867676
      ],
      "min": [
        -1.0204799175262451,
        0.09003448486328125
      ],
      "type": "VEC2"
    },
    {
      "bufferView": 1,
      "byteOffset": 199472,
      "componentType": 5126,
      "count": 1141,
      "max": [
        -0.026185035705566406,
        0.9904446601867676
      ],
      "min": [
        -1.0047308206558228,
        0.09003448486328125
      ],
      "type": "VEC2"
    },
    {
      "bufferView": 1,
      "byteOffset": 208600,
      "componentType": 5126,
      "count": 1141,
      "max": [
        -0.020935416221618652,
        0.9904446601867676
      ],
      "min": [
        -0.9994811415672302,
        0.09003448486328125
      ],
      "type": "VEC2"
    },
    {
      "bufferView": 0,
      "byteOffset": 21276,
      "componentType": 5125,
      "count": 1938,
      "type": "SCALAR"
    },
    {
      "bufferView": 2,
      "byteOffset": 93312,
      "componentType": 5126,
      "count": 1132,
      "max": [
        8.031515121459961,
        28.74496841430664,
        8.031515121459961
      ],
      "min": [
        -14.785839080810547,
        20.938199996948242,
        -14.785842895507813
      ],
      "type": "VEC3"
    },
    {
      "bufferView": 2,
      "byteOffset": 106896,
      "componentType": 5126,
      "count": 1132,
      "max": [
        1.0,
        1.0,
        1.0
      ],
      "min": [
        -1.0,
        -1.0,
        -1.0
      ],
      "type": "VEC3"
    },
    {
      "bufferView": 3,
      "byteOffset": 62208,
      "componentType": 5126,
      "count": 1132,
      "max": [
        1.0,
        1.0,
        1.0,
        0.0
      ],
      "min": [
        0.11372549086809158,
        0.10980392247438431,
        0.20392157137393951,
        0.0
      ],
      "type": "VEC4"
    },
    {
      "bufferView": 1,
      "byteOffset": 217728,
      "componentType": 5126,
      "count": 1132,
      "max": [
        0.9658463001251221,
        0.9832203984260559
      ],
      "min": [
        0.03573910892009735,
        0.03004378080368042
      ],
      "type": "VEC2"
    },
    {
      "bufferView": 1,
      "byteOffset": 226784,
      "componentType": 5126,
      "count": 1132,
      "max": [
        -0.044715285301208496,
        0.9832203984260559
      ],
      "min": [
        -0.974822461605072,
        0.03004378080368042
      ],
      "type": "VEC2"
    },
    {
      "bufferView": 1,
      "byteOffset": 235840,
      "componentType": 5126,
      "count": 1132,
      "max": [
        -0.028966248035430908,
        0.9832203984260559
      ],
      "min": [
        -0.9590734243392944,
        0.03004378080368042
      ],
      "type": "VEC2"
    },
    {
      "bufferView": 1,
      "byteOffset": 244896,
      "componentType": 5126,
      "count": 1132,
      "max": [
        -0.06833863258361816,
        0.9832203984260559
      ],
      "min": [
        -0.9984458088874817,
        0.03004378080368042
      ],
      "type": "VEC2"
    },
    {
      "bufferView": 1,
      "byteOffset": 253952,
      "componentType": 5126,
      "count": 1132,
      "max": [
        -0.06308901309967041,
        0.9832203984260559
      ],
      "min": [
        -0.9931961894035339,
        0.03004378080368042
      ],
      "type": "VEC2"
    },
    {
      "bufferView": 1,
      "byteOffset": 263008,
      "componentType": 5126,
      "count": 1132,
      "max": [
        -0.04733991622924805,
        0.9832203984260559
      ],
      "min": [
        -0.9774470925331116,
        0.03004378080368042
      ],
      "type": "VEC2"
    },
    {
      "bufferView": 1,
      "byteOffset": 272064,
      "componentType": 5126,
      "count": 1132,
      "max": [
        0.9658463001251221,
        0.9832203984260559
      ],
      "min": [
        0.03573910892009735,
        0.03004378080368042
      ],
      "type": "VEC2"
    },
    {
      "bufferView": 0,
      "byteOffset": 29028,
      "componentType": 5125,
      "count": 2079,
      "type": "SCALAR"
    },
    {
      "bufferView": 2,
      "byteOffset": 120480,
      "componentType": 5126,
      "count": 278,
      "max": [
        24.48993682861328,
        15.665785789489746,
        24.49412727355957
      ],
      "min": [
        -17.14767074584961,
        14.481698036193848,
        -16.77748680114746
      ],
      "type": "VEC3"
    },
    {
      "bufferView": 2,
      "byteOffset": 123816,
      "componentType": 5126,
      "count": 278,
      "max": [
        0.7840296030044556,
        0.9998928308486938,
        0.8542912602424622
      ],
      "min": [
        -0.7471058368682861,
        0.5197947025299072,
        -0.8463029861450195
      ],
      "type": "VEC3"
    },
    {
      "bufferView": 3,
      "byteOffset": 80320,
      "componentType": 5126,
      "count": 278,
      "max": [
        1.0,
        1.0,
        1.0,
        0.0
      ],
      "min": [
        0.11372549086809158,
        0.10980392247438431,
        0.20392157137393951,
        0.0
      ],
      "type": "VEC4"
    },
    {
      "bufferView": 1,
      "byteOffset": 281120,
      "componentType": 5126,
      "count": 278,
      "max": [
        0.9828872084617615,
        0.9620597958564758
      ],
      "min": [
        0.02267344854772091,
        0.025547266006469727
      ],
      "type": "VEC2"
    },
    {
      "bufferView": 1,
      "byteOffset": 283344,
      "componentType": 5126,
      "count": 278,
      "max": [
        -0.027674376964569092,
        0.9620597958564758
      ],
      "min": [
        -0.9878881573677063,
        0.025547266006469727
      ],
      "type": "VEC2"
    },
    {
      "bufferView": 1,
      "byteOffset": 285568,
      "componentType": 5126,
      "count": 278,
      "max": [
        -0.011925339698791504,
        0.9620597958564758
      ],
      "min": [
        -0.9721391201019287,
        0.025547266006469727
      ],
      "type": "VEC2"
    },
    {
      "bufferView": 1,
      "byteOffset": 287792,
      "componentType": 5126,
      "count": 278,
      "max": [
        0.9828872084617615,
        0.9620597958564758
      ],
      "min": [
        0.02267344854772091,
        0.025547266006469727
      ],
      "type": "VEC2"
    },
    {
      "bufferView": 1,
      "byteOffset": 290016,
      "componentType": 5126,
      "count": 278,
      "max": [
        -0.046048104763031006,
        0.9620597958564758
      ],
      "min": [
        -1.0062618255615234,
        0.025547266006469727
      ],
      "type": "VEC2"
    },
    {
      "bufferView": 1,
      "byteOffset": 292240,
      "componentType": 5126,
      "count": 278,
      "max": [
        -0.030299007892608643,
        0.9620597958564758
      ],
      "min": [
        -0.9905127882957458,
        0.025547266006469727
      ],
      "type": "VEC2"
    },
    {
      "bufferView": 1,
      "byteOffset": 294464,
      "componentType": 5126,
      "count": 278,
      "max": [
        -0.02504938840866089,
        0.9620597958564758
      ],
      "min": [
        -0.9852631688117981,
        0.025547266006469727
      ],
      "type": "VEC2"
    },
    {
      "bufferView": 0,
      "byteOffset": 37344,
      "componentType": 5125,
      "count": 402,
      "type": "SCALAR"
    },
    {
      "bufferView": 2,
      "byteOffset": 127152,
      "componentType": 5126,
      "count": 20,
      "max": [
        0.718485414981842,
        1.479372262954712,
        1.0
      ],
      "min": [
        -0.7933291792869568,
        -1.0,
        -1.0
      ],
      "type": "VEC3"
    },
    {
      "bufferView": 2,
      "byteOffset": 127392,
      "componentType": 5126,
      "count": 20,
      "max": [
        0.5773503184318542,
        0.5773503184318542,
        0.5773503184318542
      ],
      "min": [
        -0.5773503184318542,
        -0.5773503184318542,
        -0.5773503184318542
      ],
      "type": "VEC3"
    },
    {
      "bufferView": 1,
      "byteOffset": 296688,
      "componentType": 5126,
      "count": 20,
      "max": [
        0.9843550324440002,
        0.5378544330596924
      ],
      "min": [
        0.6432269811630249,
        0.29472440481185913
      ],
      "type": "VEC2"
    },
    {
      "bufferView": 0,
      "byteOffset": 38952,
      "componentType": 5125,
      "count": 36,
      "type": "SCALAR"
    },
    {
      "bufferView": 2,
      "byteOffset": 127632,
      "componentType": 5126,
      "count": 64,
      "max": [
        -3.451749801635742,
        23.335498809814453,
        -2.8762638568878174
      ],
      "min": [
        -3.9063549041748047,
        20.931896209716797,
        -3.33086895942688
      ],
      "type": "VEC3"
    },
    {
      "bufferView": 2,
      "byteOffset": 128400,
      "componentType": 5126,
      "count": 64,
      "max": [
        0.8459187746047974,
        0.8790902495384216,
        0.7071068286895752
      ],
      "min": [
        -0.7071068286895752,
        -0.6347158551216125,
        -0.7071068286895752
      ],
      "type": "VEC3"
    },
    {
      "bufferView": 1,
      "byteOffset": 296848,
      "componentType": 5126,
      "count": 64,
      "max": [
        0.2993794083595276,
        0.9808768630027771
      ],
      "min": [
        0.01934847980737686,
        0.4950026869773865
      ],
      "type": "VEC2"
    },
    {
      "bufferView": 0,
      "byteOffset": 39096,
      "componentType": 5125,
      "count": 90,
      "type": "SCALAR"
    },
    {
      "bufferView": 2,
      "byteOffset": 129168,
      "componentType": 5126,
      "count": 64,
      "max": [
        0.22730374336242676,
        1.0648956298828125,
        0.22730231285095215
      ],
      "min": [
        -0.22730135917663574,
        -1.3387069702148438,
        -0.22730278968811035
      ],
      "type": "VEC3"
    },
    {
      "bufferView": 2,
      "byteOffset": 129936,
      "componentType": 5126,
      "count": 64,
      "max": [
        0.8459187746047974,
        0.8790606260299683,
        0.7071068286895752
      ],
      "min": [
        -0.7071068286895752,
        -0.6347158551216125,
        -0.7071068286895752
      ],
      "type": "VEC3"
    },
    {
      "bufferView": 1,
      "byteOffset": 297360,
      "componentType": 5126,
      "count": 64,
      "max": [
        0.2993794083595276,
        0.9808768630027771
      ],
      "min": [
        0.01934847980737686,
        0.4950026869773865
      ],
      "type": "VEC2"
    },
    {
      "bufferView": 0,
      "byteOffset": 39456,
      "componentType": 5125,
      "count": 90,
      "type": "SCALAR"
    },
    {
      "bufferView": 2,
      "byteOffset": 130704,
      "componentType": 5126,
      "count": 64,
      "max": [
        0.22730374336242676,
        1.0648956298828125,
        0.22730231285095215
      ],
      "min": [
        -0.22730135917663574,
        -1.3387069702148438,
        -0.22730278968811035
      ],
      "type": "VEC3"
    },
    {
      "bufferView": 2,
      "byteOffset": 131472,
      "componentType": 5126,
      "count": 64,
      "max": [
        0.8459187746047974,
        0.8790606260299683,
        0.7071068286895752
      ],
      "min": [
        -0.7071068286895752,
        -0.6347158551216125,
        -0.7071068286895752
      ],
      "type": "VEC3"
    },
    {
      "bufferView": 1,
      "byteOffset": 297872,
      "componentType": 5126,
      "count": 64,
      "max": [
        0.2993794083595276,
        0.9808768630027771
      ],
      "min": [
        0.01934847980737686,
        0.4950026869773865
      ],
      "type": "VEC2"
    },
    {
      "bufferView": 0,
      "byteOffset": 39816,
      "componentType": 5125,
      "count": 90,
      "type": "SCALAR"
    },
    {
      "bufferView": 2,
      "byteOffset": 132240,
      "componentType": 5126,
      "count": 64,
      "max": [
        0.22730374336242676,
        1.0648956298828125,
        0.22730231285095215
      ],
      "min": [
        -0.22730135917663574,
        -1.3387069702148438,
        -0.22730278968811035
      ],
      "type": "VEC3"
    },
    {
      "bufferView": 2,
      "byteOffset": 133008,
      "componentType": 5126,
      "count": 64,
      "max": [
        0.8459187746047974,
        0.8790606260299683,
        0.7071068286895752
      ],
      "min": [
        -0.7071068286895752,
        -0.6347158551216125,
        -0.7071068286895752
      ],
      "type": "VEC3"
    },
    {
      "bufferView": 1,
      "byteOffset": 298384,
      "componentType": 5126,
      "count": 64,
      "max": [
        0.2993794083595276,
        0.9808768630027771
      ],
      "min": [
        0.01934847980737686,
        0.4950026869773865
      ],
      "type": "VEC2"
    },
    {
      "bufferView": 0,
      "byteOffset": 40176,
      "componentType": 5125,
      "count": 90,
      "type": "SCALAR"
    },
    {
      "bufferView": 2,
      "byteOffset": 133776,
      "componentType": 5126,
      "count": 64,
      "max": [
        0.22730374336242676,
        1.0648956298828125,
        0.22730231285095215
      ],
      "min": [
        -0.22730135917663574,
        -1.3387069702148438,
        -0.22730278968811035
      ],
      "type": "VEC3"
    },
    {
      "bufferView": 2,
      "byteOffset": 134544,
      "componentType": 5126,
      "count": 64,
      "max": [
        0.8459187746047974,
        0.8790606260299683,
        0.7071068286895752
      ],
      "min": [
        -0.7071068286895752,
        -0.6347158551216125,
        -0.7071068286895752
      ],
      "type": "VEC3"
    },
    {
      "bufferView": 1,
      "byteOffset": 298896,
      "componentType": 5126,
      "count": 64,
      "max": [
        0.2993794083595276,
        0.9808768630027771
      ],
      "min": [
        0.01934847980737686,
        0.4950026869773865
      ],
      "type": "VEC2"
    },
    {
      "bufferView": 0,
      "byteOffset": 40536,
      "componentType": 5125,
      "count": 90,
      "type": "SCALAR"
    },
    {
      "bufferView": 2,
      "byteOffset": 135312,
      "componentType": 5126,
      "count": 64,
      "max": [
        0.22730374336242676,
        1.0648956298828125,
        0.22730231285095215
      ],
      "min": [
        -0.22730135917663574,
        -1.3387069702148438,
        -0.22730278968811035
      ],
      "type": "VEC3"
    },
    {
      "bufferView": 2,
      "byteOffset": 136080,
      "componentType": 5126,
      "count": 64,
      "max": [
        0.8459187746047974,
        0.8790606260299683,
        0.7071068286895752
      ],
      "min": [
        -0.7071068286895752,
        -0.6347158551216125,
        -0.7071068286895752
      ],
      "type": "VEC3"
    },
    {
      "bufferView": 1,
      "byteOffset": 299408,
      "componentType": 5126,
      "count": 64,
      "max": [
        0.2993794083595276,
        0.9808768630027771
      ],
      "min": [
        0.01934847980737686,
        0.4950026869773865
      ],
      "type": "VEC2"
    },
    {
      "bufferView": 0,
      "byteOffset": 40896,
      "componentType": 5125,
      "count": 90,
      "type": "SCALAR"
    },
    {
      "bufferView": 2,
      "byteOffset": 136848,
      "componentType": 5126,
      "count": 64,
      "max": [
        0.22730374336242676,
        1.0648956298828125,
        0.22730231285095215
      ],
      "min": [
        -0.22730135917663574,
        -1.3387069702148438,
        -0.22730278968811035
      ],
      "type": "VEC3"
    },
    {
      "bufferView": 2,
      "byteOffset": 137616,
      "componentType": 5126,
      "count": 64,
      "max": [
        0.8459187746047974,
        0.8790606260299683,
        0.7071068286895752
      ],
      "min": [
        -0.7071068286895752,
        -0.6347158551216125,
        -0.7071068286895752
      ],
      "type": "VEC3"
    },
    {
      "bufferView": 1,
      "byteOffset": 299920,
      "componentType": 5126,
      "count": 64,
      "max": [
        0.2993794083595276,
        0.9808768630027771
      ],
      "min": [
        0.01934847980737686,
        0.4950026869773865
      ],
      "type": "VEC2"
    },
    {
      "bufferView": 0,
      "byteOffset": 41256,
      "componentType": 5125,
      "count": 90,
      "type": "SCALAR"
    },
    {
      "bufferView": 2,
      "byteOffset": 138384,
      "componentType": 5126,
      "count": 16,
      "max": [
        1.0145405530929565,
        1.0,
        1.3363988399505615
      ],
      "min": [
        -0.7434141635894775,
        -1.0,
        -1.0250401496887207
      ],
      "type": "VEC3"
    },
    {
      "bufferView": 2,
      "byteOffset": 138576,
      "componentType": 5126,
      "count": 16,
      "max": [
        0.9795522689819336,
        0.0,
        0.9795522689819336
      ],
      "min": [
        0.20119018852710724,
        0.0,
        -0.20119018852710724
      ],
      "type": "VEC3"
    },
    {
      "bufferView": 1,
      "byteOffset": 300432,
      "componentType": 5126,
      "count": 16,
      "max": [
        0.4642956256866455,
        0.26128089427948
      ],
      "min": [
        0.008637454360723495,
        0.0064612627029418945
      ],
      "type": "VEC2"
    },
    {
      "bufferView": 0,
      "byteOffset": 41616,
      "componentType": 5125,
      "count": 24,
      "type": "SCALAR"
    },
    {
      "bufferView": 2,
      "byteOffset": 138768,
      "componentType": 5126,
      "count": 16,
      "max": [
        1.0145405530929565,
        1.0,
        1.3363988399505615
      ],
      "min": [
        -0.7434141635894775,
        -1.0,
        -1.0250401496887207
      ],
      "type": "VEC3"
    },
    {
      "bufferView": 2,
      "byteOffset": 138960,
      "componentType": 5126,
      "count": 16,
      "max": [
        0.9795522689819336,
        0.0,
        0.9795522689819336
      ],
      "min": [
        0.20119018852710724,
        0.0,
        -0.20119018852710724
      ],
      "type": "VEC3"
    },
    {
      "bufferView": 1,
      "byteOffset": 300560,
      "componentType": 5126,
      "count": 16,
      "max": [
        0.4642956256866455,
        0.26128089427948
      ],
      "min": [
        0.008637454360723495,
        0.0064612627029418945
      ],
      "type": "VEC2"
    },
    {
      "bufferView": 0,
      "byteOffset": 41712,
      "componentType": 5125,
      "count": 24,
      "type": "SCALAR"
    },
    {
      "bufferView": 2,
      "byteOffset": 139152,
      "componentType": 5126,
      "count": 68,
      "max": [
        1.1631649732589722,
        2.1818995475769043,
        1.1631649732589722
      ],
      "min": [
        -1.1631649732589722,
        -0.9999998807907104,
        -1.1631649732589722
      ],
      "type": "VEC3"
    },
    {
      "bufferView": 2,
      "byteOffset": 139968,
      "componentType": 5126,
      "count": 68,
      "max": [
        0.9898512363433838,
        1.0,
        0.9898512363433838
      ],
      "min": [
        -0.9898512363433838,
        -0.18670311570167542,
        -0.9898512363433838
      ],
      "type": "VEC3"
    },
    {
      "bufferView": 1,
      "byteOffset": 300688,
      "componentType": 5126,
      "count": 68,
      "max": [
        0.5507512092590332,
        0.9814184308052063
      ],
      "min": [
        0.3639456033706665,
        0.6059287786483765
      ],
      "type": "VEC2"
    },
    {
      "bufferView": 0,
      "byteOffset": 41808,
      "componentType": 5125,
      "count": 102,
      "type": "SCALAR"
    },
    {
      "bufferView": 2,
      "byteOffset": 140784,
      "componentType": 5126,
      "count": 68,
      "max": [
        1.1631649732589722,
        2.1818995475769043,
        1.1631649732589722
      ],
      "min": [
        -1.1631649732589722,
        -0.9999998807907104,
        -1.1631649732589722
      ],
      "type": "VEC3"
    },
    {
      "bufferView": 2,
      "byteOffset": 141600,
      "componentType": 5126,
      "count": 68,
      "max": [
        0.9898512363433838,
        1.0,
        0.9898512363433838
      ],
      "min": [
        -0.9898512363433838,
        -0.18670311570167542,
        -0.9898512363433838
      ],
      "type": "VEC3"
    },
    {
      "bufferView": 1,
      "byteOffset": 301232,
      "componentType": 5126,
      "count": 68,
      "max": [
        0.5507512092590332,
        0.9814184308052063
      ],
      "min": [
        0.3639456033706665,
        0.6059287786483765
      ],
      "type": "VEC2"
    },
    {
      "bufferView": 0,
      "byteOffset": 42216,
      "componentType": 5125,
      "count": 102,
      "type": "SCALAR"
    },
    {
      "bufferView": 2,
      "byteOffset": 142416,
      "componentType": 5126,
      "count": 68,
      "max": [
        1.1631649732589722,
        2.1818995475769043,
        1.1631649732589722
      ],
      "min": [
        -1.1631649732589722,
        -0.9999998807907104,
        -1.1631649732589722
      ],
      "type": "VEC3"
    },
    {
      "bufferView": 2,
      "byteOffset": 143232,
      "componentType": 5126,
      "count": 68,
      "max": [
        0.9898512363433838,
        1.0,
        0.9898512363433838
      ],
      "min": [
        -0.9898512363433838,
        -0.18670311570167542,
        -0.9898512363433838
      ],
      "type": "VEC3"
    },
    {
      "bufferView": 1,
      "byteOffset": 301776,
      "componentType": 5126,
      "count": 68,
      "max": [
        0.5507512092590332,
        0.9814184308052063
      ],
      "min": [
        0.3639456033706665,
        0.6059287786483765
      ],
      "type": "VEC2"
    },
    {
      "bufferView": 0,
      "byteOffset": 42624,
      "componentType": 5125,
      "count": 102,
      "type": "SCALAR"
    },
    {
      "bufferView": 2,
      "byteOffset": 144048,
      "componentType": 5126,
      "count": 41,
      "max": [
        -6.471497535705566,
        21.58147621154785,
        0.30373597145080566
      ],
      "min": [
        -8.779156684875488,
        20.935344696044922,
        -4.4157562255859375
      ],
      "type": "VEC3"
    },
    {
      "bufferView": 2,
      "byteOffset": 144540,
      "componentType": 5126,
      "count": 41,
      "max": [
        1.0,
        1.0,
        1.0
      ],
      "min": [
        -1.0,
        -0.6854333281517029,
        -1.0
      ],
      "type": "VEC3"
    },
    {
      "bufferView": 1,
      "byteOffset": 302320,
      "componentType": 5126,
      "count": 41,
      "max": [
        0.9914110898971558,
        0.2669256925582886
      ],
      "min": [
        0.6754645109176636,
        0.007329463958740234
      ],
      "type": "VEC2"
    },
    {
      "bufferView": 0,
      "byteOffset": 43032,
      "componentType": 5125,
      "count": 84,
      "type": "SCALAR"
    },
    {
      "bufferView": 2,
      "byteOffset": 145032,
      "componentType": 5126,
      "count": 4,
      "max": [
        1.0,
        0.0,
        1.0
      ],
      "min": [
        -1.0,
        0.0,
        -1.0
      ],
      "type": "VEC3"
    },
    {
      "bufferView": 2,
      "byteOffset": 145080,
      "componentType": 5126,
      "count": 4,
      "max": [
        0.0,
        1.0,
        0.0
      ],
      "min": [
        0.0,
        1.0,
        0.0
      ],
      "type": "VEC3"
    },
    {
      "bufferView": 1,
      "byteOffset": 302648,
      "componentType": 5126,
      "count": 4,
      "max": [
        0.9908888339996338,
        1.002143144607544
      ],
      "min": [
        0.5843629240989685,
        0.6131954193115234
      ],
      "type": "VEC2"
    },
    {
      "bufferView": 0,
      "byteOffset": 43368,
      "componentType": 5125,
      "count": 6,
      "type": "SCALAR"
    },
    {
      "bufferView": 2,
      "byteOffset": 145128,
      "componentType": 5126,
      "count": 465,
      "max": [
        0.3694777488708496,
        1.6109137535095215,
        0.09777440875768661
      ],
      "min": [
        -0.3694777488708496,
        0.013216487132012844,
        -0.3792206943035126
      ],
      "type": "VEC3"
    },
    {
      "bufferView": 2,
      "byteOffset": 150708,
      "componentType": 5126,
      "count": 465,
      "max": [
        0.9995073676109314,
        0.9969218969345093,
        0.9999479651451111
      ],
      "min": [
        -0.9995073676109314,
        -0.9390710592269897,
        -0.9974905848503113
      ],
      "type": "VEC3"
    },
    {
      "bufferView": 1,
      "byteOffset": 302680,
      "componentType": 5126,
      "count": 465,
      "max": [
        0.991817831993103,
        0.9826704859733582
      ],
      "min": [
        0.006241093389689922,
        0.0026540160179138184
      ],
      "type": "VEC2"
    },
    {
      "bufferView": 0,
      "byteOffset": 43392,
      "componentType": 5125,
      "count": 1542,
      "type": "SCALAR"
    },
    {
      "bufferView": 2,
      "byteOffset": 156288,
      "componentType": 5126,
      "count": 187,
      "max": [
        0.4077208638191223,
        1.4053903818130493,
        0.09886874258518219
      ],
      "min": [
        -0.4077208638191223,
        0.6759268641471863,
        -0.18522940576076508
      ],
      "type": "VEC3"
    },
    {
      "bufferView": 2,
      "byteOffset": 158532,
      "componentType": 5126,
      "count": 187,
      "max": [
        0.998236358165741,
        0.8329904079437256,
        0.9996680617332458
      ],
      "min": [
        -0.998236358165741,
        -0.44001245498657227,
        -0.9999155402183533
      ],
      "type": "VEC3"
    },
    {
      "bufferView": 1,
      "byteOffset": 306400,
      "componentType": 5126,
      "count": 187,
      "max": [
        0.9857416152954102,
        0.9878294467926025
      ],
      "min": [
        0.012767227366566658,
        0.008816421031951904
      ],
      "type": "VEC2"
    },
    {
      "bufferView": 0,
      "byteOffset": 49560,
      "componentType": 5125,
      "count": 630,
      "type": "SCALAR"
    },
    {
      "bufferView": 2,
      "byteOffset": 160776,
      "componentType": 5126,
      "count": 24,
      "max": [
        0.31487834453582764,
        0.7078710198402405,
        0.18725185096263885
      ],
      "min": [
        -0.31487834453582764,
        0.13778993487358093,
        -0.299687922000885
      ],
      "type": "VEC3"
    },
    {
      "bufferView": 2,
      "byteOffset": 161064,
      "componentType": 5126,
      "count": 24,
      "max": [
        0.8740344643592834,
        0.2481989860534668,
        0.9874955415725708
      ],
      "min": [
        -0.8740344643592834,
        0.11829579621553421,
        -0.9791357517242432
      ],
      "type": "VEC3"
    },
    {
      "bufferView": 1,
      "byteOffset": 307896,
      "componentType": 5126,
      "count": 24,
      "max": [
        0.5799469947814941,
        0.9847730398178101
      ],
      "min": [
        0.023326754570007324,
        0.754845380783081
      ],
      "type": "VEC2"
    },
    {
      "bufferView": 0,
      "byteOffset": 52080,
      "componentType": 5125,
      "count": 60,
      "type": "SCALAR"
    },
    {
      "bufferView": 2,
      "byteOffset": 161352,
      "componentType": 5126,
      "count": 56,
      "max": [
        0.7652820944786072,
        5.371203422546387,
        1.0
      ],
      "min": [
        -0.5324622392654419,
        -1.0,
        -1.0
      ],
      "type": "VEC3"
    },
    {
      "bufferView": 2,
      "byteOffset": 162024,
      "componentType": 5126,
      "count": 56,
      "max": [
        0.7071068286895752,
        0.5773503184318542,
        0.7071068286895752
      ],
      "min": [
        -0.7071068286895752,
        0.0,
        -0.7071068286895752
      ],
      "type": "VEC3"
    },
    {
      "bufferView": 1,
      "byteOffset": 308088,
      "componentType": 5126,
      "count": 56,
      "max": [
        0.9652377367019653,
        0.2396523356437683
      ],
      "min": [
        0.6868877410888672,
        0.10190707445144653
      ],
      "type": "VEC2"
    },
    {
      "bufferView": 0,
      "byteOffset": 52320,
      "componentType": 5125,
      "count": 84,
      "type": "SCALAR"
    },
    {
      "bufferView": 2,
      "byteOffset": 162696,
      "componentType": 5126,
      "count": 229,
      "max": [
        1.7067856788635254,
        2.439678907394409,
        2.0198256969451904
      ],
      "min": [
        -1.7067859172821045,
        -3.60372257232666,
        -1.286771535873413
      ],
      "type": "VEC3"
    },
    {
      "bufferView": 2,
      "byteOffset": 165444,
      "componentType": 5126,
      "count": 229,
      "max": [
        0.9979709982872009,
        0.996945321559906,
        0.9999860525131226
      ],
      "min": [
        -0.9979709982872009,
        -0.7013923525810242,
        -0.9998860359191895
      ],
      "type": "VEC3"
    },
    {
      "bufferView": 1,
      "byteOffset": 308536,
      "componentType": 5126,
      "count": 229,
      "max": [
        0.9763365983963013,
        0.980129599571228
      ],
      "min": [
        0.015711750835180283,
        0.012243151664733887
      ],
      "type": "VEC2"
    },
    {
      "bufferView": 0,
      "byteOffset": 52656,
      "componentType": 5125,
      "count": 696,
      "type": "SCALAR"
    },
    {
      "bufferView": 2,
      "byteOffset": 168192,
      "componentType": 5126,
      "count": 95,
      "max": [
        25.096586227416992,
        26.6478328704834,
        23.117897033691406
      ],
      "min": [
        22.584630966186523,
        12.50627613067627,
        20.98227882385254
      ],
      "type": "VEC3"
    },
    {
      "bufferView": 2,
      "byteOffset": 169332,
      "componentType": 5126,
      "count": 95,
      "max": [
        0.8065989017486572,
        1.0,
        0.8065989017486572
      ],
      "min": [
        -0.8065989017486572,
        -1.0,
        -0.8065989017486572
      ],
      "type": "VEC3"
    },
    {
      "bufferView": 1,
      "byteOffset": 310368,
      "componentType": 5126,
      "count": 95,
      "max": [
        0.9012657999992371,
        0.9609631896018982
      ],
      "min": [
        0.0319468230009079,
        0.03263890743255615
      ],
      "type": "VEC2"
    },
    {
      "bufferView": 0,
      "byteOffset": 55440,
      "componentType": 5125,
      "count": 156,
      "type": "SCALAR"
    },
    {
      "bufferView": 2,
      "byteOffset": 170472,
      "componentType": 5126,
      "count": 95,
      "max": [
        1.7852039337158203,
        3.9834251403808594,
        0.6422958374023438
      ],
      "min": [
        -0.7267513275146484,
        -10.15813159942627,
        -1.4933223724365234
      ],
      "type": "VEC3"
    },
    {
      "bufferView": 2,
      "byteOffset": 171612,
      "componentType": 5126,
      "count": 95,
      "max": [
        0.8065989017486572,
        1.0,
        0.8065989017486572
      ],
      "min": [
        -0.8065989017486572,
        -1.0,
        -0.8065989017486572
      ],
      "type": "VEC3"
    },
    {
      "bufferView": 1,
      "byteOffset": 311128,
      "componentType": 5126,
      "count": 95,
      "max": [
        0.9012657999992371,
        0.9609631896018982
      ],
      "min": [
        0.0319468230009079,
        0.03263890743255615
      ],
      "type": "VEC2"
    },
    {
      "bufferView": 0,
      "byteOffset": 56064,
      "componentType": 5125,
      "count": 156,
      "type": "SCALAR"
    },
    {
      "bufferView": 2,
      "byteOffset": 172752,
      "componentType": 5126,
      "count": 95,
      "max": [
        1.7852039337158203,
        3.9834251403808594,
        0.6422958374023438
      ],
      "min": [
        -0.7267513275146484,
        -10.15813159942627,
        -1.4933223724365234
      ],
      "type": "VEC3"
    },
    {
      "bufferView": 2,
      "byteOffset": 173892,
      "componentType": 5126,
      "count": 95,
      "max": [
        0.8065989017486572,
        1.0,
        0.8065989017486572
      ],
      "min": [
        -0.8065989017486572,
        -1.0,
        -0.8065989017486572
      ],
      "type": "VEC3"
    },
    {
      "bufferView": 1,
      "byteOffset": 311888,
      "componentType": 5126,
      "count": 95,
      "max": [
        0.9012657999992371,
        0.9609631896018982
      ],
      "min": [
        0.0319468230009079,
        0.03263890743255615
      ],
      "type": "VEC2"
    },
    {
      "bufferView": 0,
      "byteOffset": 56688,
      "componentType": 5125,
      "count": 156,
      "type": "SCALAR"
    },
    {
      "bufferView": 2,
      "byteOffset": 175032,
      "componentType": 5126,
      "count": 95,
      "max": [
        1.7852039337158203,
        3.9834251403808594,
        0.6422958374023438
      ],
      "min": [
        -0.7267513275146484,
        -10.15813159942627,
        -1.4933223724365234
      ],
      "type": "VEC3"
    },
    {
      "bufferView": 2,
      "byteOffset": 176172,
      "componentType": 5126,
      "count": 95,
      "max": [
        0.8065989017486572,
        1.0,
        0.8065989017486572
      ],
      "min": [
        -0.8065989017486572,
        -1.0,
        -0.8065989017486572
      ],
      "type": "VEC3"
    },
    {
      "bufferView": 1,
      "byteOffset": 312648,
      "componentType": 5126,
      "count": 95,
      "max": [
        0.9012657999992371,
        0.9609631896018982
      ],
      "min": [
        0.0319468230009079,
        0.03263890743255615
      ],
      "type": "VEC2"
    },
    {
      "bufferView": 0,
      "byteOffset": 57312,
      "componentType": 5125,
      "count": 156,
      "type": "SCALAR"
    },
    {
      "bufferView": 2,
      "byteOffset": 177312,
      "componentType": 5126,
      "count": 95,
      "max": [
        1.7852039337158203,
        3.9834251403808594,
        0.6422958374023438
      ],
      "min": [
        -0.7267513275146484,
        -10.15813159942627,
        -1.4933223724365234
      ],
      "type": "VEC3"
    },
    {
      "bufferView": 2,
      "byteOffset": 178452,
      "componentType": 5126,
      "count": 95,
      "max": [
        0.8065989017486572,
        1.0,
        0.8065989017486572
      ],
      "min": [
        -0.8065989017486572,
        -1.0,
        -0.8065989017486572
      ],
      "type": "VEC3"
    },
    {
      "bufferView": 1,
      "byteOffset": 313408,
      "componentType": 5126,
      "count": 95,
      "max": [
        0.9012657999992371,
        0.9609631896018982
      ],
      "min": [
        0.0319468230009079,
        0.03263890743255615
      ],
      "type": "VEC2"
    },
    {
      "bufferView": 0,
      "byteOffset": 57936,
      "componentType": 5125,
      "count": 156,
      "type": "SCALAR"
    },
    {
      "bufferView": 2,
      "byteOffset": 179592,
      "componentType": 5126,
      "count": 36,
      "max": [
        1.7838294506072998,
        1.8651793003082275,
        7.143868446350098
      ],
      "min": [
        -1.7838294506072998,
        0.0032038092613220215,
        3.5768918991088867
      ],
      "type": "VEC3"
    },
    {
      "bufferView": 2,
      "byteOffset": 180024,
      "componentType": 5126,
      "count": 36,
      "max": [
        1.0,
        0.01669934205710888,
        0.9998606443405151
      ],
      "min": [
        0.0,
        -0.013700221665203571,
        -0.8183132410049438
      ],
      "type": "VEC3"
    },
    {
      "bufferView": 1,
      "byteOffset": 314168,
      "componentType": 5126,
      "count": 36,
      "max": [
        0.9680540561676025,
        0.8276979923248291
      ],
      "min": [
        0.034573376178741455,
        0.03861105442047119
      ],
      "type": "VEC2"
    },
    {
      "bufferView": 0,
      "byteOffset": 58560,
      "componentType": 5125,
      "count": 60,
      "type": "SCALAR"
    },
    {
      "bufferView": 2,
      "byteOffset": 180456,
      "componentType": 5126,
      "count": 36,
      "max": [
        1.7838294506072998,
        1.8651793003082275,
        7.143868446350098
      ],
      "min": [
        -1.7838294506072998,
        0.0032038092613220215,
        3.5768918991088867
      ],
      "type": "VEC3"
    },
    {
      "bufferView": 2,
      "byteOffset": 180888,
      "componentType": 5126,
      "count": 36,
      "max": [
        1.0,
        0.01669934205710888,
        0.9998606443405151
      ],
      "min": [
        0.0,
        -0.013700221665203571,
        -0.8183132410049438
      ],
      "type": "VEC3"
    },
    {
      "bufferView": 1,
      "byteOffset": 314456,
      "componentType": 5126,
      "count": 36,
      "max": [
        0.9680540561676025,
        0.8276979923248291
      ],
      "min": [
        0.034573376178741455,
        0.03861105442047119
      ],
      "type": "VEC2"
    },
    {
      "bufferView": 0,
      "byteOffset": 58800,
      "componentType": 5125,
      "count": 60,
      "type": "SCALAR"
    },
    {
      "bufferView": 2,
      "byteOffset": 181320,
      "componentType": 5126,
      "count": 36,
      "max": [
        1.7838294506072998,
        1.8651793003082275,
        7.143868446350098
      ],
      "min": [
        -1.7838294506072998,
        0.0032038092613220215,
        3.5768918991088867
      ],
      "type": "VEC3"
    },
    {
      "bufferView": 2,
      "byteOffset": 181752,
      "componentType": 5126,
      "count": 36,
      "max": [
        1.0,
        0.01669934205710888,
        0.9998606443405151
      ],
      "min": [
        0.0,
        -0.013700221665203571,
        -0.8183132410049438
      ],
      "type": "VEC3"
    },
    {
      "bufferView": 1,
      "byteOffset": 314744,
      "componentType": 5126,
      "count": 36,
      "max": [
        0.9680540561676025,
        0.8276979923248291
      ],
      "min": [
        0.034573376178741455,
        0.03861105442047119
      ],
      "type": "VEC2"
    },
    {
      "bufferView": 0,
      "byteOffset": 59040,
      "componentType": 5125,
      "count": 60,
      "type": "SCALAR"
    },
    {
      "bufferView": 2,
      "byteOffset": 182184,
      "componentType": 5126,
      "count": 44,
      "max": [
        1.81927490234375,
        1.4095016717910767,
        1.4412761926651
      ],
      "min": [
        -1.2967607975006104,
        -1.327446699142456,
        -1.5753329992294312
      ],
      "type": "VEC3"
    },
    {
      "bufferView": 2,
      "byteOffset": 182712,
      "componentType": 5126,
      "count": 44,
      "max": [
        0.993773341178894,
        0.9509217143058777,
        0.9550978541374207
      ],
      "min": [
        -0.9882144927978516,
        -0.9939713478088379,
        -0.9896864295005798
      ],
      "type": "VEC3"
    },
    {
      "bufferView": 1,
      "byteOffset": 315032,
      "componentType": 5126,
      "count": 44,
      "max": [
        0.9872099161148071,
        0.986781120300293
      ],
      "min": [
        0.010017409920692444,
        0.015864253044128418
      ],
      "type": "VEC2"
    },
    {
      "bufferView": 0,
      "byteOffset": 59280,
      "componentType": 5125,
      "count": 144,
      "type": "SCALAR"
    },
    {
      "bufferView": 2,
      "byteOffset": 183240,
      "componentType": 5126,
      "count": 44,
      "max": [
        1.81927490234375,
        1.4095016717910767,
        1.4412761926651
      ],
      "min": [
        -1.2967607975006104,
        -1.327446699142456,
        -1.5753329992294312
      ],
      "type": "VEC3"
    },
    {
      "bufferView": 2,
      "byteOffset": 183768,
      "componentType": 5126,
      "count": 44,
      "max": [
        0.993773341178894,
        0.9509217143058777,
        0.9550978541374207
      ],
      "min": [
        -0.9882144927978516,
        -0.9939713478088379,
        -0.9896864295005798
      ],
      "type": "VEC3"
    },
    {
      "bufferView": 1,
      "byteOffset": 315384,
      "componentType": 5126,
      "count": 44,
      "max": [
        0.9872099161148071,
        0.986781120300293
      ],
      "min": [
        0.010017409920692444,
        0.015864253044128418
      ],
      "type": "VEC2"
    },
    {
      "bufferView": 0,
      "byteOffset": 59856,
      "componentType": 5125,
      "count": 144,
      "type": "SCALAR"
    },
    {
      "bufferView": 2,
      "byteOffset": 184296,
      "componentType": 5126,
      "count": 44,
      "max": [
        1.81927490234375,
        1.4095016717910767,
        1.4412761926651
      ],
      "min": [
        -1.2967607975006104,
        -1.327446699142456,
        -1.5753329992294312
      ],
      "type": "VEC3"
    },
    {
      "bufferView": 2,
      "byteOffset": 184824,
      "componentType": 5126,
      "count": 44,
      "max": [
        0.993773341178894,
        0.9509217143058777,
        0.9550978541374207
      ],
      "min": [
        -0.9882144927978516,
        -0.9939713478088379,
        -0.9896864295005798
      ],
      "type": "VEC3"
    },
    {
      "bufferView": 1,
      "byteOffset": 315736,
      "componentType": 5126,
      "count": 44,
      "max": [
        0.9872099161148071,
        0.986781120300293
      ],
      "min": [
        0.010017409920692444,
        0.015864253044128418
      ],
      "type": "VEC2"
    },
    {
      "bufferView": 0,
      "byteOffset": 60432,
      "componentType": 5125,
      "count": 144,
      "type": "SCALAR"
    },
    {
      "bufferView": 2,
      "byteOffset": 185352,
      "componentType": 5126,
      "count": 1068,
      "max": [
        7.065278053283691,
        12.860268592834473,
        -1.5962729454040527
      ],
      "min": [
        -5.34901237487793,
        -0.12670040130615234,
        -14.091287612915039
      ],
      "type": "VEC3"
    },
    {
      "bufferView": 2,
      "byteOffset": 198168,
      "componentType": 5126,
      "count": 1068,
      "max": [
        0.9988431930541992,
        0.9818060398101807,
        0.9995017647743225
      ],
      "min": [
        -0.9987866282463074,
        -0.9999890327453613,
        -0.9987137913703918
      ],
      "type": "VEC3"
    },
    {
      "bufferView": 1,
      "byteOffset": 316088,
      "componentType": 5126,
      "count": 1068,
      "max": [
        0.9973747134208679,
        0.9900837540626526
      ],
      "min": [
        0.010020658373832703,
        0.00787198543548584
      ],
      "type": "VEC2"
    },
    {
      "bufferView": 0,
      "byteOffset": 61008,
      "componentType": 5125,
      "count": 2787,
      "type": "SCALAR"
    }
  ],
  "asset": {
    "extras": {
      "author": "Seifert (https://sketchfab.com/Peter_Seifert)",
      "license": "CC-BY-4.0 (http://creativecommons.org/licenses/by/4.0/)",
      "source": "https://sketchfab.com/3d-models/japanese-castle-psx-09d2bdd2904948739acf534180087a97",
      "title": "Japanese Castle PSX"
    },
    "generator": "Sketchfab-16.35.0",
    "version": "2.0"
  },
  "bufferViews": [
    {
      "buffer": 0,
      "byteLength": 72156,
      "name": "floatBufferViews",
      "target": 34963
    },
    {
      "buffer": 0,
      "byteLength": 324632,
      "byteOffset": 72156,
      "byteStride": 8,
      "name": "floatBufferViews",
      "target": 34962
    },
    {
      "buffer": 0,
      "byteLength": 210984,
      "byteOffset": 396788,
      "byteStride": 12,
      "name": "floatBufferViews",
      "target": 34962
    },
    {
      "buffer": 0,
      "byteLength": 84768,
      "byteOffset": 607772,
      "byteStride": 16,
      "name": "floatBufferViews",
      "target": 34962
    }
  ],
  "buffers": [
    {
      "byteLength": 692540,
      "uri": "scene.bin"
    }
  ],
  "extensionsUsed": [
    "KHR_materials_unlit"
  ],
  "images": [
    {
      "uri": "textures/CASTLE_STONE_BASE_baseColor.png"
    },
    {
      "uri": "textures/MAIN_CASTLE_WALLS_baseColor.png"
    },
    {
      "uri": "textures/DOORS_GATES_AND_SLOPE_FENCE_BANNER_baseColor.png"
    },
    {
      "uri": "textures/FIRST_FLOOR_WALLS_AND_STAIR_CASES_baseColor.png"
    },
    {
      "uri": "textures/ROOFTOPS_baseColor.png"
    },
    {
      "uri": "textures/FIRST_FLOOR_INTERIOR_baseColor.png"
    },
    {
      "uri": "textures/OUTWALL_ROOFTOPS_baseColor.png"
    },
    {
      "uri": "textures/FURNITURE_baseColor.png"
    },
    {
      "uri": "textures/LADY_ELF_BODY_MATERIAL_baseColor.png"
    },
    {
      "uri": "textures/LADY_ELF_CLOTH_MATERIAL_baseColor.png"
    },
    {
      "uri": "textures/YOROI_DISPLAY_baseColor.png"
    },
    {
      "uri": "textures/BANNER_MATERIAL_baseColor.png"
    },
    {
      "uri": "textures/Material_baseColor.png"
    },
    {
      "uri": "textures/rock_material_baseColor.png"
    },
    {
      "uri": "textures/SMALL_TREE_MATERIAL_baseColor.png"
    }
  ],
  "materials": [
    {
      "doubleSided": true,
      "extensions": {
        "KHR_materials_unlit": {}
      },
      "name": "CASTLE_STONE_BASE",
      "pbrMetallicRoughness": {
        "baseColorTexture": {
          "index": 0
        },
        "metallicFactor": 0.0
      }
    },
    {
      "doubleSided": true,
      "extensions": {
        "KHR_materials_unlit": {}
      },
      "name": "MAIN_CASTLE_WALLS",
      "pbrMetallicRoughness": {
        "baseColorTexture": {
          "index": 1
        },
        "metallicFactor": 0.0
      }
    },
    {
      "alphaMode": "MASK",
      "doubleSided": true,
      "extensions": {
        "KHR_materials_unlit": {}
      },
      "name": "DOORS_GATES_AND_SLOPE_FENCE_BANNER",
      "pbrMetallicRoughness": {
        "baseColorTexture": {
          "index": 2
        },
        "metallicFactor": 0.0
      }
    },
    {
      "doubleSided": true,
      "extensions": {
        "KHR_materials_unlit": {}
      },
      "name": "FIRST_FLOOR_WALLS_AND_STAIR_CASES",
      "pbrMetallicRoughness": {
        "baseColorTexture": {
          "index": 3
        },
        "metallicFactor": 0.0
      }
    },
    {
      "doubleSided": true,
      "extensions": {
        "KHR_materials_unlit": {}
      },
      "name": "ROOFTOPS",
      "pbrMetallicRoughness": {
        "baseColorTexture": {
          "index": 4
        },
        "metallicFactor": 0.0
      }
    },
    {
      "alphaMode": "MASK",
      "doubleSided": true,
      "extensions": {
        "KHR_materials_unlit": {}
      },
      "name": "FIRST_FLOOR_INTERIOR",
      "pbrMetallicRoughness": {
        "baseColorTexture": {
          "index": 5
        },
        "metallicFactor": 0.0
      }
    },
    {
      "doubleSided": true,
      "extensions": {
        "KHR_materials_unlit": {}
      },
      "name": "OUTWALL_ROOFTOPS",
      "pbrMetallicRoughness": {
        "baseColorTexture": {
          "index": 6
        },
        "metallicFactor": 0.0
      }
    },
    {
      "alphaMode": "MASK",
      "doubleSided": true,
      "extensions": {
        "KHR_materials_unlit": {}
      },
      "name": "FURNITURE",
      "pbrMetallicRoughness": {
        "baseColorTexture": {
          "index": 7
        },
        "metallicFactor": 0.0
      }
    },
    {
      "alphaMode": "MASK",
      "doubleSided": true,
      "extensions": {
        "KHR_materials_unlit": {}
      },
      "name": "LADY_ELF_BODY_MATERIAL",
      "pbrMetallicRoughness": {
        "baseColorTexture": {
          "index": 8
        },
        "metallicFactor": 0.0
      }
    },
    {
      "alphaMode": "MASK",
      "doubleSided": true,
      "extensions": {
        "KHR_materials_unlit": {}
      },
      "name": "LADY_ELF_CLOTH_MATERIAL",
      "pbrMetallicRoughness": {
        "baseColorTexture": {
          "index": 9
        },
        "metallicFactor": 0.0
      }
    },
    {
      "alphaMode": "BLEND",
      "doubleSided": true,
      "extensions": {
        "KHR_materials_unlit": {}
      },
      "name": "LADY_ELF_CLOTH_BLEND_MATERIAL",
      "pbrMetallicRoughness": {
        "baseColorTexture": {
          "index": 9
        },
        "metallicFactor": 0.0
      }
    },
    {
      "alphaMode": "MASK",
      "doubleSided": true,
      "extensions": {
        "KHR_materials_unlit": {}
      },
      "name": "YOROI_DISPLAY",
      "pbrMetallicRoughness": {
        "baseColorTexture": {
          "index": 10
        },
        "metallicFactor": 0.0
      }
    },
    {
      "alphaMode": "MASK",
      "doubleSided": true,
      "extensions": {
        "KHR_materials_unlit": {}
      },
      "name": "BANNER_MATERIAL",
      "pbrMetallicRoughness": {
        "baseColorTexture": {
          "index": 11
        },
        "metallicFactor": 0.0
      }
    },
    {
      "alphaMode": "MASK",
      "doubleSided": true,
      "extensions": {
        "KHR_materials_unlit": {}
      },
      "name": "Material",
      "pbrMetallicRoughness": {
        "baseColorTexture": {
          "index": 12
        },
        "metallicFactor": 0.0
      }
    },
    {
      "doubleSided": true,
      "extensions": {
        "KHR_materials_unlit": {}
      },
      "name": "rock_material",
      "pbrMetallicRoughness": {
        "baseColorTexture": {
          "index": 13
        },
        "metallicFactor": 0.0
      }
    },
    {
      "alphaMode": "MASK",
      "doubleSided": true,
      "extensions": {
        "KHR_materials_unlit": {}
      },
      "name": "SMALL_TREE_MATERIAL",
      "pbrMetallicRoughness": {
        "baseColorTexture": {
          "index": 14
        },
        "metallicFactor": 0.0
      }
    }
  ],
  "meshes": [
    {
      "name": "Object_0",
      "primitives": [
        {
          "attributes": {
            "COLOR_0": 2,
            "NORMAL": 1,
            "POSITION": 0,
            "TEXCOORD_0": 3,
            "TEXCOORD_1": 4,
            "TEXCOORD_2": 5,
            "TEXCOORD_3": 6,
            "TEXCOORD_4": 7,
            "TEXCOORD_5": 8,
            "TEXCOORD_6": 9
          },
          "indices": 10,
          "material": 0,
          "mode": 4
        }
      ]
    },
    {
      "name": "Object_1",
      "primitives": [
        {
          "attributes": {
            "COLOR_0": 13,
            "NORMAL": 12,
            "POSITION": 11,
            "TEXCOORD_0": 14,
            "TEXCOORD_1": 15,
            "TEXCOORD_2": 16,
            "TEXCOORD_3": 17,
            "TEXCOORD_4": 18,
            "TEXCOORD_5": 19,
            "TEXCOORD_6": 20
          },
          "indices": 21,
          "material": 1,
          "mode": 4
        }
      ]
    },
    {
      "name": "Object_2",
      "primitives": [
        {
          "attributes": {
            "COLOR_0": 24,
            "NORMAL": 23,
            "POSITION": 22,
            "TEXCOORD_0": 25,
            "TEXCOORD_1": 26,
            "TEXCOORD_2": 27,
            "TEXCOORD_3": 28,
            "TEXCOORD_4": 29,
            "TEXCOORD_5": 30,
            "TEXCOORD_6": 31
          },
          "indices": 32,
          "material": 2,
          "mode": 4
        }
      ]
    },
    {
      "name": "Object_3",
      "primitives": [
        {
          "attributes": {
            "COLOR_0": 35,
            "NORMAL": 34,
            "POSITION": 33,
            "TEXCOORD_0": 36,
            "TEXCOORD_1": 37,
            "TEXCOORD_2": 38,
            "TEXCOORD_3": 39,
            "TEXCOORD_4": 40,
            "TEXCOORD_5": 41,
            "TEXCOORD_6": 42
          },
          "indices": 43,
          "material": 3,
          "mode": 4
        }
      ]
    },
    {
      "name": "Object_4",
      "primitives": [
        {
          "attributes": {
            "COLOR_0": 46,
            "NORMAL": 45,
            "POSITION": 44,
            "TEXCOORD_0": 47,
            "TEXCOORD_1": 48,
            "TEXCOORD_2": 49,
            "TEXCOORD_3": 50,
            "TEXCOORD_4": 51,
            "TEXCOORD_5": 52,
            "TEXCOORD_6": 53
          },
          "indices": 54,
          "material": 4,
          "mode": 4
        }
      ]
    },
    {
      "name": "Object_5",
      "primitives": [
        {
          "attributes": {
            "COLOR_0": 57,
            "NORMAL": 56,
            "POSITION": 55,
            "TEXCOORD_0": 58,
            "TEXCOORD_1": 59,
            "TEXCOORD_2": 60,
            "TEXCOORD_3": 61,
            "TEXCOORD_4": 62,
            "TEXCOORD_5": 63,
            "TEXCOORD_6": 64
          },
          "indices": 65,
          "material": 5,
          "mode": 4
        }
      ]
    },
    {
      "name": "Object_6",
      "primitives": [
        {
          "attributes": {
            "COLOR_0": 68,
            "NORMAL": 67,
            "POSITION": 66,
            "TEXCOORD_0": 69,
            "TEXCOORD_1": 70,
            "TEXCOORD_2": 71,
            "TEXCOORD_3": 72,
            "TEXCOORD_4": 73,
            "TEXCOORD_5": 74,
            "TEXCOORD_6": 75
          },
          "indices": 76,
          "material": 6,
          "mode": 4
        }
      ]
    },
    {
      "name": "Object_7",
      "primitives": [
        {
          "attributes": {
            "NORMAL": 78,
            "POSITION": 77,
            "TEXCOORD_0": 79
          },
          "indices": 80,
          "material": 7,
          "mode": 4
        }
      ]
    },
    {
      "name": "Object_8",
      "primitives": [
        {
          "attributes": {
            "NORMAL": 82,
            "POSITION": 81,
            "TEXCOORD_0": 83
          },
          "indices": 84,
          "material": 7,
          "mode": 4
        }
      ]
    },
    {
      "name": "Object_9",
      "primitives": [
        {
          "attributes": {
            "NORMAL": 86,
            "POSITION": 85,
            "TEXCOORD_0": 87
          },
          "indices": 88,
          "material": 7,
          "mode": 4
        }
      ]
    },
    {
      "name": "Object_10",
      "primitives": [
        {
          "attributes": {
            "NORMAL": 90,
            "POSITION": 89,
            "TEXCOORD_0": 91
          },
          "indices": 92,
          "material": 7,
          "mode": 4
        }
      ]
    },
    {
      "name": "Object_11",
      "primitives": [
        {
          "attributes": {
            "NORMAL": 94,
            "POSITION": 93,
            "TEXCOORD_0": 95
          },
          "indices": 96,
          "material": 7,
          "mode": 4
        }
      ]
    },
    {
      "name": "Object_12",
      "primitives": [
        {
          "attributes": {
            "NORMAL": 98,
            "POSITION": 97,
            "TEXCOORD_0": 99
          },
          "indices": 100,
          "material": 7,
          "mode": 4
        }
      ]
    },
    {
      "name": "Object_13",
      "primitives": [
        {
          "attributes": {
            "NORMAL": 102,
            "POSITION": 101,
            "TEXCOORD_0": 103
          },
          "indices": 104,
          "material": 7,
          "mode": 4
        }
      ]
    },
    {
      "name": "Object_14",
      "primitives": [
        {
          "attributes": {
            "NORMAL": 106,
            "POSITION": 105,
            "TEXCOORD_0": 107
          },
          "indices": 108,
          "material": 7,
          "mode": 4
        }
      ]
    },
    {
      "name": "Object_15",
      "primitives": [
        {
          "attributes": {
            "NORMAL": 110,
            "POSITION": 109,
            "TEXCOORD_0": 111
          },
          "indices": 112,
          "material": 7,
          "mode": 4
        }
      ]
    },
    {
      "name": "Object_16",
      "primitives": [
        {
          "attributes": {
            "NORMAL": 114,
            "POSITION": 113,
            "TEXCOORD_0": 115
          },
          "indices": 116,
          "material": 7,
          "mode": 4
        }
      ]
    },
    {
      "name": "Object_17",
      "primitives": [
        {
          "attributes": {
            "NORMAL": 118,
            "POSITION": 117,
            "TEXCOORD_0": 119
          },
          "indices": 120,
          "material": 7,
          "mode": 4
        }
      ]
    },
    {
      "name": "Object_18",
      "primitives": [
        {
          "attributes": {
            "NORMAL": 122,
            "POSITION": 121,
            "TEXCOORD_0": 123
          },
          "indices": 124,
          "material": 7,
          "mode": 4
        }
      ]
    },
    {
      "name": "Object_19",
      "primitives": [
        {
          "attributes": {
            "NORMAL": 126,
            "POSITION": 125,
            "TEXCOORD_0": 127
          },
          "indices": 128,
          "material": 7,
          "mode": 4
        }
      ]
    },
    {
      "name": "Object_20",
      "primitives": [
        {
          "attributes": {
            "NORMAL": 130,
            "POSITION": 129,
            "TEXCOORD_0": 131
          },
          "indices": 132,
          "material": 7,
          "mode": 4
        }
      ]
    },
    {
      "name": "Object_21",
      "primitives": [
        {
          "attributes": {
            "NORMAL": 134,
            "POSITION": 133,
            "TEXCOORD_0": 135
          },
          "indices": 136,
          "material": 7,
          "mode": 4
        }
      ]
    },
    {
      "name": "Object_22",
      "primitives": [
        {
          "attributes": {
            "NORMAL": 138,
            "POSITION": 137,
            "TEXCOORD_0": 139
          },
          "indices": 140,
          "material": 8,
          "mode": 4
        }
      ]
    },
    {
      "name": "Object_23",
      "primitives": [
        {
          "attributes": {
            "NORMAL": 142,
            "POSITION": 141,
            "TEXCOORD_0": 143
          },
          "indices": 144,
          "material": 9,
          "mode": 4
        }
      ]
    },
    {
      "name": "Object_24",
      "primitives": [
        {
          "attributes": {
            "NORMAL": 146,
            "POSITION": 145,
            "TEXCOORD_0": 147
          },
          "indices": 148,
          "material": 10,
          "mode": 4
        }
      ]
    },
    {
      "name": "Object_25",
      "primitives": [
        {
          "attributes": {
            "NORMAL": 150,
            "POSITION": 149,
            "TEXCOORD_0": 151
          },
          "indices": 152,
          "material": 7,
          "mode": 4
        }
      ]
    },
    {
      "name": "Object_26",
      "primitives": [
        {
          "attributes": {
            "NORMAL": 154,
            "POSITION": 153,
            "TEXCOORD_0": 155
          },
          "indices": 156,
          "material": 11,
          "mode": 4
        }
      ]
    },
    {
      "name": "Object_27",
      "primitives": [
        {
          "attributes": {
            "NORMAL": 158,
            "POSITION": 157,
            "TEXCOORD_0": 159
          },
          "indices": 160,
          "material": 12,
          "mode": 4
        }
      ]
    },
    {
      "name": "Object_28",
      "primitives": [
        {
          "attributes": {
            "NORMAL": 162,
            "POSITION": 161,
            "TEXCOORD_0": 163
          },
          "indices": 164,
          "material": 12,
          "mode": 4
        }
      ]
    },
    {
      "name": "Object_29",
      "primitives": [
        {
          "attributes": {
            "NORMAL": 166,
            "POSITION": 165,
            "TEXCOORD_0": 167
          },
          "indices": 168,
          "material": 12,
          "mode": 4
        }
      ]
    },
    {
      "name": "Object_30",
      "primitives": [
        {
          "attributes": {
            "NORMAL": 170,
            "POSITION": 169,
            "TEXCOORD_0": 171
          },
          "indices": 172,
          "material": 12,
          "mode": 4
        }
      ]
    },
    {
      "name": "Object_31",
      "primitives": [
        {
          "attributes": {
            "NORMAL": 174,
            "POSITION": 173,
            "TEXCOORD_0": 175
          },
          "indices": 176,
          "material": 12,
          "mode": 4
        }
      ]
    },
    {
      "name": "Object_32",
      "primitives": [
        {
          "attributes": {
            "NORMAL": 178,
            "POSITION": 177,
            "TEXCOORD_0": 179
          },
          "indices": 180,
          "material": 13,
          "mode": 4
        }
      ]
    },
    {
      "name": "Object_33",
      "primitives": [
        {
          "attributes": {
            "NORMAL": 182,
            "POSITION": 181,
            "TEXCOORD_0": 183
          },
          "indices": 184,
          "material": 13,
          "mode": 4
        }
      ]
    },
    {
      "name": "Object_34",
      "primitives": [
        {
          "attributes": {
            "NORMAL": 186,
            "POSITION": 185,
            "TEXCOORD_0": 187
          },
          "indices": 188,
          "material": 13,
          "mode": 4
        }
      ]
    },
    {
      "name": "Object_35",
      "primitives": [
        {
          "attributes": {
            "NORMAL": 190,
            "POSITION": 189,
            "TEXCOORD_0": 191
          },
          "indices": 192,
          "material": 14,
          "mode": 4
        }
      ]
    },
    {
      "name": "Object_36",
      "primitives": [
        {
          "attributes": {
            "NORMAL": 194,
            "POSITION": 193,
            "TEXCOORD_0": 195
          },
          "indices": 196,
          "material": 14,
          "mode": 4
        }
      ]
    },
    {
      "name": "Object_37",
      "primitives": [
        {
          "attributes": {
            "NORMAL": 198,
            "POSITION": 197,
            "TEXCOORD_0": 199
          },
          "indices": 200,
          "material": 14,
          "mode": 4
        }
      ]
    },
    {
      "name": "Object_38",
      "primitives": [
        {
          "attributes": {
            "NORMAL": 202,
            "POSITION": 201,
            "TEXCOORD_0": 203
          },
          "indices": 204,
          "material": 15,
          "mode": 4
        }
      ]
    }
  ],
  "nodes": [
    {
      "children": [
        1
      ],
      "matrix": [
        1.0,
        0.0,
        0.0,
        0.0,
        0.0,
        2.220446049250313e-16,
        -1.0,
        0.0,
        0.0,
        1.0,
        2.220446049250313e-16,
        0.0,
        0.0,
        0.0,
        0.0,
        1.0
      ],
      "name": "Sketchfab_model"
    },
    {
      "children": [
        2
      ],
      "name": "root"
    },
    {
      "children": [
        3,
        11,
        13,
        15,
        17,
        19,
        21,
        23,
        25,
        27,
        29,
        31,
        33,
        35,
        37,
        39,
        41,
        45,
        47,
        49,
        51,
        53,
        55,
        57,
        59,
        61,
        63,
        65,
        67,
        69,
        71
      ],
      "matrix": [
        1.0,
        0.0,
        0.0,
        0.0,
        0.0,
        2.220446049250313e-16,
        1.0,
        0.0,
        0.0,
        -1.0,
        2.220446049250313e-16,
        0.0,
        0.0,
        0.0,
        0.0,
        1.0
      ],
      "name": "GLTF_SceneRootNode"
    },
    {
      "children": [
        4,
        5,
        6,
        7,
        8,
        9,
        10
      ],
      "name": "CASTLE_0"
    },
    {
      "mesh": 0,
      "name": "Object_4"
    },
    {
      "mesh": 1,
      "name": "Object_5"
    },
    {
      "mesh": 2,
      "name": "Object_6"
    },
    {
      "mesh": 3,
      "name": "Object_7"
    },
    {
      "mesh": 4,
      "name": "Object_8"
    },
    {
      "mesh": 5,
      "name": "Object_9"
    },
    {
      "mesh": 6,
      "name": "Object_10"
    },
    {
      "children": [
        12
      ],
      "matrix": [
        1.0,
        0.0,
        0.0,
        0.0,
        0.0,
        1.0,
        0.0,
        0.0,
        0.0,
        0.0,
        1.0,
        0.0,
        -9.081499099731445,
        21.924686431884766,
        3.257779121398926,
        1.0
      ],
      "name": "CABINET_1"
    },
    {
      "mesh": 7,
      "name": "Object_12"
    },
    {
      "children": [
        14
      ],
      "name": "CANDLE_2"
    },
    {
      "mesh": 8,
      "name": "Object_14"
    },
    {
      "children": [
        16
      ],
      "matrix": [
        1.0,
        0.0,
        0.0,
        0.0,
        0.0,
        1.0,
        0.0,
        0.0,
        0.0,
        0.0,
        1.0,
        0.0,
        -3.256810188293457,
        22.296232223510742,
        -10.942705154418945,
        1.0
      ],
      "name": "CANDLE.001_3"
    },
    {
      "mesh": 9,
      "name": "Object_16"
    },
    {
      "children": [
        18
      ],
      "matrix": [
        1.0,
        0.0,
        0.0,
        0.0,
        0.0,
        1.0,
        0.0,
        0.0,
        0.0,
        0.0,
        1.0,
        0.0,
        -3.256810188293457,
        22.29623031616211,
        4.188381195068359,
        1.0
      ],
      "name": "CANDLE.002_4"
    },
    {
      "mesh": 10,
      "name": "Object_18"
    },
    {
      "children": [
        20
      ],
      "matrix": [
        1.0,
        0.0,
        0.0,
        0.0,
        0.0,
        1.0,
        0.0,
        0.0,
        0.0,
        0.0,
        1.0,
        0.0,
        -11.93366813659668,
        22.296232223510742,
        4.188381195068359,
        1.0
      ],
      "name": "CANDLE.003_5"
    },
    {
      "mesh": 11,
      "name": "Object_20"
    },
    {
      "children": [
        22
      ],
      "matrix": [
        1.0,
        0.0,
        0.0,
        0.0,
        0.0,
        1.0,
        0.0,
        0.0,
        0.0,
        0.0,
        1.0,
        0.0,
        -7.229375839233398,
        22.296232223510742,
        -10.633376121520996,
        1.0
      ],
      "name": "CANDLE.004_6"
    },
    {
      "mesh": 12,
      "name": "Object_22"
    },
    {
      "children": [
        24
      ],
      "matrix": [
        1.0,
        0.0,
        0.0,
        0.0,
        0.0,
        1.0,
        0.0,
        0.0,
        0.0,
        0.0,
        1.0,
        0.0,
        9.581832885742188,
        13.85505199432373,
        -6.59055233001709,
        1.0
      ],
      "name": "CANDLE.005_7"
    },
    {
      "mesh": 13,
      "name": "Object_24"
    },
    {
      "children": [
        26
      ],
      "matrix": [
        1.0,
        0.0,
        0.0,
        0.0,
        0.0,
        1.0,
        0.0,
        0.0,
        0.0,
        0.0,
        1.0,
        0.0,
        9.567657470703125,
        13.85505199432373,
        -0.1915346384048462,
        1.0
      ],
      "name": "CANDLE.006_8"
    },
    {
      "mesh": 14,
      "name": "Object_26"
    },
    {
      "children": [
        28
      ],
      "matrix": [
        0.1570375321681906,
        0.0,
        -1.279040623747061,
        0.0,
        0.0,
        1.0,
        0.0,
        0.0,
        1.279040623747061,
        0.0,
        0.1570375321681906,
        0.0,
        -10.756035804748535,
        21.967039108276367,
        -0.08090907335281372,
        1.0
      ],
      "name": "FOLDING SCREEN.001_9"
    },
    {
      "mesh": 15,
      "name": "Object_28"
    },
    {
      "children": [
        30
      ],
      "matrix": [
        1.2594719166820822,
        0.0,
        0.2726466482352361,
        0.0,
        -0.0,
        1.0,
        0.0,
        0.0,
        -0.2726466482352361,
        0.0,
        1.2594719166820822,
        0.0,
        -10.95702838897705,
        21.90811538696289,
        -5.799332141876221,
        1.0
      ],
      "name": "FOLDING SCREEN.002_10"
    },
    {
      "mesh": 16,
      "name": "Object_30"
    },
    {
      "children": [
        32
      ],
      "matrix": [
        0.5195793509483337,
        0.0,
        0.0,
        0.0,
        0.0,
        0.5195793509483337,
        0.0,
        0.0,
        0.0,
        0.0,
        0.5195793509483337,
        0.0,
        1.0504189729690552,
        19.562238693237305,
        -0.04199552536010742,
        1.0
      ],
      "name": "LANTERN_11"
    },
    {
      "mesh": 17,
      "name": "Object_32"
    },
    {
      "children": [
        34
      ],
      "matrix": [
        0.5195793509483337,
        0.0,
        0.0,
        0.0,
        0.0,
        0.5195793509483337,
        0.0,
        0.0,
        0.0,
        0.0,
        0.5195793509483337,
        0.0,
        1.0504189729690552,
        19.562238693237305,
        -6.74795389175415,
        1.0
      ],
      "name": "LANTERN.001_12"
    },
    {
      "mesh": 18,
      "name": "Object_34"
    },
    {
      "children": [
        36
      ],
      "matrix": [
        0.5195793509483337,
        0.0,
        0.0,
        0.0,
        0.0,
        0.5195793509483337,
        0.0,
        0.0,
        0.0,
        0.0,
        0.5195793509483337,
        0.0,
        15.80122184753418,
        13.253791809082031,
        10.654020309448242,
        1.0
      ],
      "name": "LANTERN.002_13"
    },
    {
      "mesh": 19,
      "name": "Object_36"
    },
    {
      "children": [
        38
      ],
      "matrix": [
        1.0,
        0.0,
        0.0,
        0.0,
        0.0,
        1.0,
        0.0,
        0.0,
        0.0,
        0.0,
        1.0,
        0.0,
        -0.44944480061531067,
        0.0,
        -0.9482672810554504,
        1.0
      ],
      "name": "TABLE_14"
    },
    {
      "mesh": 20,
      "name": "Object_38"
    },
    {
      "children": [
        40
      ],
      "matrix": [
        3.7598938941955566,
        0.0,
        0.0,
        0.0,
        0.0,
        3.7598938941955566,
        0.0,
        0.0,
        0.0,
        0.0,
        3.7598938941955566,
        0.0,
        -8.074771881103516,
        20.956525802612305,
        -3.004277467727661,
        1.0
      ],
      "name": "TATAMI_15"
    },
    {
      "mesh": 21,
      "name": "Object_40"
    },
    {
      "children": [
        42,
        43,
        44
      ],
      "matrix": [
        0.7092862539821161,
        0.0,
        0.7049205699311215,
        0.0,
        -0.0,
        1.0,
        0.0,
        0.0,
        -0.7049205699311215,
        0.0,
        0.7092862539821161,
        0.0,
        -6.268481731414795,
        20.938199996948242,
        -5.025496482849121,
        1.0
      ],
      "name": "lady elf.001_16"
    },
    {
      "mesh": 22,
      "name": "Object_42"
    },
    {
      "mesh": 23,
      "name": "Object_43"
    },
    {
      "mesh": 24,
      "name": "Object_44"
    },
    {
      "children": [
        46
      ],
      "matrix": [
        0.8386272192001343,
        0.0,
        0.0,
        0.0,
        0.0,
        0.28401869535446167,
        0.0,
        0.0,
        0.0,
        0.0,
        0.8386272192001343,
        0.0,
        -11.834665298461914,
        21.21234703063965,
        -3.0042777061462402,
        1.0
      ],
      "name": "ARMOR STAND DISPLAY_17"
    },
    {
      "mesh": 25,
      "name": "Object_46"
    },
    {
      "children": [
        48
      ],
      "matrix": [
        0.0,
        0.0,
        -0.39148786664009094,
        0.0,
        0.0,
        0.39148786664009094,
        0.0,
        0.0,
        0.39148786664009094,
        0.0,
        0.0,
        0.0,
        -11.587531089782715,
        22.362390518188477,
        -3.0042781829833984,
        1.0
      ],
      "name": "yoroi_18"
    },
    {
      "mesh": 26,
      "name": "Object_48"
    },
    {
      "children": [
        50
      ],
      "name": "BANNER_19"
    },
    {
      "mesh": 27,
      "name": "Object_50"
    },
    {
      "children": [
        52
      ],
      "matrix": [
        0.9772722515894688,
        0.0,
        0.21198808049805523,
        0.0,
        0.0,
        1.0,
        0.0,
        0.0,
        -0.21198808049805523,
        0.0,
        0.9772722515894688,
        0.0,
        15.792623519897461,
        22.66440773010254,
        6.780498027801514,
        1.0
      ],
      "name": "BANNER.001_20"
    },
    {
      "mesh": 28,
      "name": "Object_52"
    },
    {
      "children": [
        54
      ],
      "matrix": [
        0.9772722515894688,
        0.0,
        0.21198808049805523,
        0.0,
        0.0,
        1.0,
        0.0,
        0.0,
        -0.21198808049805523,
        0.0,
        0.9772722515894688,
        0.0,
        15.792623519897461,
        22.66440773010254,
        1.1831493377685547,
        1.0
      ],
      "name": "BANNER.002_21"
    },
    {
      "mesh": 29,
      "name": "Object_54"
    },
    {
      "children": [
        56
      ],
      "matrix": [
        0.9772722515894688,
        0.0,
        0.21198808049805523,
        0.0,
        0.0,
        1.0,
        0.0,
        0.0,
        -0.21198808049805523,
        0.0,
        0.9772722515894688,
        0.0,
        15.792623519897461,
        22.66440773010254,
        -5.148404121398926,
        1.0
      ],
      "name": "BANNER.003_22"
    },
    {
      "mesh": 30,
      "name": "Object_56"
    },
    {
      "children": [
        58
      ],
      "matrix": [
        0.9772722515894688,
        0.0,
        0.21198808049805523,
        0.0,
        0.0,
        1.0,
        0.0,
        0.0,
        -0.21198808049805523,
        0.0,
        0.9772722515894688,
        0.0,
        15.792623519897461,
        22.66440773010254,
        -11.509871482849121,
        1.0
      ],
      "name": "BANNER.004_23"
    },
    {
      "mesh": 31,
      "name": "Object_58"
    },
    {
      "children": [
        60
      ],
      "matrix": [
        1.0,
        0.0,
        0.0,
        0.0,
        0.0,
        1.0,
        0.0,
        0.0,
        0.0,
        0.0,
        1.0,
        0.0,
        16.440149307250977,
        12.3330659866333,
        10.636757850646973,
        1.0
      ],
      "name": "bushes type 2.001_24"
    },
    {
      "mesh": 32,
      "name": "Object_60"
    },
    {
      "children": [
        62
      ],
      "matrix": [
        1.0,
        0.0,
        0.0,
        0.0,
        0.0,
        1.0,
        0.0,
        0.0,
        0.0,
        0.0,
        1.0,
        0.0,
        17.552814483642578,
        12.3330659866333,
        12.807721138000488,
        1.0
      ],
      "name": "bushes type 2.002_25"
    },
    {
      "mesh": 33,
      "name": "Object_62"
    },
    {
      "children": [
        64
      ],
      "matrix": [
        1.0,
        0.0,
        0.0,
        0.0,
        0.0,
        1.0,
        0.0,
        0.0,
        0.0,
        0.0,
        1.0,
        0.0,
        15.731343269348145,
        12.3330659866333,
        13.273099899291992,
        1.0
      ],
      "name": "bushes type 2.003_26"
    },
    {
      "mesh": 34,
      "name": "Object_64"
    },
    {
      "children": [
        66
      ],
      "matrix": [
        0.679230809211731,
        0.0,
        0.0,
        0.0,
        0.0,
        0.3759307861328125,
        0.0,
        0.0,
        0.0,
        0.0,
        0.8102206587791443,
        0.0,
        14.974605560302734,
        13.052327156066895,
        17.047311782836914,
        1.0
      ],
      "name": "ROCK.001_27"
    },
    {
      "mesh": 35,
      "name": "Object_66"
    },
    {
      "children": [
        68
      ],
      "matrix": [
        0.6565567851066589,
        0.0,
        0.0,
        0.0,
        0.0,
        0.3633815050125122,
        0.0,
        0.0,
        0.0,
        0.0,
        0.7831739783287048,
        0.0,
        16.979589462280273,
        13.052327156066895,
        17.682268142700195,
        1.0
      ],
      "name": "ROCK.002_28"
    },
    {
      "mesh": 36,
      "name": "Object_68"
    },
    {
      "children": [
        70
      ],
      "matrix": [
        0.22443910859839655,
        0.0,
        -0.45902574259508927,
        0.0,
        0.0,
        0.28279730677604675,
        0.0,
        0.0,
        0.5475489734971186,
        0.0,
        0.2677222476258025,
        0.0,
        15.506906509399414,
        13.052327156066895,
        18.994956970214844,
        1.0
      ],
      "name": "ROCK.003_29"
    },
    {
      "mesh": 37,
      "name": "Object_70"
    },
    {
      "children": [
        72
      ],
      "matrix": [
        1.0,
        0.0,
        0.0,
        0.0,
        0.0,
        1.0,
        0.0,
        0.0,
        0.0,
        0.0,
        1.0,
        0.0,
        16.251178741455078,
        12.53489875793457,
        24.839202880859375,
        1.0
      ],
      "name": "SMALL TREE.001_30"
    },
    {
      "mesh": 38,
      "name": "Object_72"
    }
  ],
  "samplers": [
    {
      "magFilter": 9728,
      "minFilter": 9728,
      "wrapS": 10497,
      "wrapT": 10497
    }
  ],
  "scene": 0,
  "scenes": [
    {
      "name": "Sketchfab_Scene",
      "nodes": [
        0
      ]
    }
  ],
  "textures": [
    {
      "sampler": 0,
      "source": 0
    },
    {
      "sampler": 0,
      "source": 1
    },
    {
      "sampler": 0,
      "source": 2
    },
    {
      "sampler": 0,
      "source": 3
    },
    {
      "sampler": 0,
      "source": 4
    },
    {
      "sampler": 0,
      "source": 5
    },
    {
      "sampler": 0,
      "source": 6
    },
    {
      "sampler": 0,
      "source": 7
    },
    {
      "sampler": 0,
      "source": 8
    },
    {
      "sampler": 0,
      "source": 9
    },
    {
      "sampler": 0,
      "source": 10
    },
    {
      "sampler": 0,
      "source": 11
    },
    {
      "sampler": 0,
      "source": 12
    },
    {
      "sampler": 0,
      "source": 13
    },
    {
      "sampler": 0,
      "source": 14
    }
  ]
}
